<svg width="17" height="16" viewBox="0 0 17 16" fill="none" xmlns="http://www.w3.org/2000/svg">
<path d="M15.6691 0.891129C15.1561 0.383998 14.4816 0.0726575 13.7628 0.0112162C13.044 -0.050225 12.3265 0.142117 11.7348 0.554815C13.6367 1.34668 15.1904 2.79617 16.1122 4.63863C16.468 4.05439 16.6177 3.36774 16.5374 2.68841C16.4571 2.00908 16.1514 1.37628 15.6691 0.891129Z" fill="#EF7E00"/>
<path d="M4.96572 0.673932C4.3765 0.205963 3.63636 -0.0301407 2.88499 0.0101813C2.13362 0.0505034 1.423 0.364462 0.887246 0.892803C0.355912 1.42765 0.0412247 2.14016 0.00377275 2.89314C-0.0336792 3.64612 0.208752 4.38634 0.68439 4.97128C1.54094 3.06551 3.06317 1.53759 4.96572 0.673932Z" fill="#EF7E00"/>
<path d="M8.47861 0.976532C7.00303 0.97958 5.56137 1.41936 4.33534 2.24045C3.10931 3.06154 2.15377 4.22718 1.58916 5.59047C1.02454 6.95376 0.87613 8.45368 1.16262 9.90118C1.4491 11.3487 2.15767 12.679 3.19901 13.7244L1.83774 15.0857C1.78832 15.1362 1.74932 15.1959 1.72298 15.2614C1.69663 15.327 1.68345 15.3971 1.6842 15.4677C1.68494 15.5384 1.69959 15.6082 1.72731 15.6731C1.75503 15.7381 1.79528 15.797 1.84575 15.8464C1.89622 15.8958 1.95594 15.9348 2.02149 15.9612C2.08703 15.9875 2.15712 16.0007 2.22776 16C2.2984 15.9992 2.3682 15.9846 2.43318 15.9568C2.49816 15.9291 2.55704 15.8889 2.60646 15.8384L4.02645 14.4184C5.32501 15.4011 6.91078 15.9293 8.53922 15.9216C10.1677 15.9138 11.7483 15.3706 13.0375 14.3757L14.5002 15.8384C14.6024 15.9259 14.7337 15.9716 14.8681 15.9664C15.0024 15.9612 15.1299 15.9055 15.2249 15.8104C15.32 15.7153 15.3757 15.5879 15.3809 15.4535C15.3861 15.3192 15.3404 15.1878 15.2529 15.0857L13.8169 13.6711C14.8436 12.6194 15.5375 11.2884 15.8117 9.84449C16.0859 8.40058 15.9282 6.90788 15.3585 5.55308C14.7888 4.19828 13.8323 3.04154 12.6086 2.22753C11.3849 1.41351 9.94832 0.978375 8.47861 0.976532ZM12.4663 10.2812C12.4052 10.4084 12.2962 10.5062 12.1631 10.5532C12.0301 10.6002 11.8838 10.5926 11.7563 10.5321L7.94478 8.68506V4.01403C7.94478 3.87245 8.00102 3.73667 8.10113 3.63656C8.20125 3.53645 8.33703 3.4802 8.47861 3.4802C8.62019 3.4802 8.75597 3.53645 8.85609 3.63656C8.9562 3.73667 9.01244 3.87245 9.01244 4.01403V8.01777L12.2154 9.57122C12.2793 9.60054 12.3368 9.64219 12.3846 9.69379C12.4323 9.74538 12.4694 9.8059 12.4937 9.87187C12.518 9.93785 12.5291 10.008 12.5262 10.0782C12.5233 10.1485 12.5066 10.2175 12.477 10.2812H12.4663Z" fill="#EF7E00"/>
</svg>
